<svg width="264" height="264" viewBox="0 0 264 264" fill="none" xmlns="http://www.w3.org/2000/svg">
<path d="M132 254C199.379 254 254 199.379 254 132C254 64.6213 199.379 10 132 10C64.6213 10 10 64.6213 10 132C10 199.379 64.6213 254 132 254Z" stroke="#0D1B37" stroke-width="20"/>
<path fill-rule="evenodd" clip-rule="evenodd" d="M146.255 117.745L132 20L117.745 117.745L20 132L117.745 146.255L132 244L146.255 146.255L244 132L146.255 117.745ZM132 147C140.284 147 147 140.284 147 132C147 123.716 140.284 117 132 117C123.716 117 117 123.716 117 132C117 140.284 123.716 147 132 147Z" fill="#0D1B37"/>
<path fill-rule="evenodd" clip-rule="evenodd" d="M132.105 114.554L70.0527 70.0526L114.554 132.105L70.0527 194.158L132.105 149.656L194.158 194.158L149.656 132.105L194.158 70.0526L132.105 114.554ZM132 147C140.284 147 147 140.284 147 132C147 123.716 140.284 117 132 117C123.716 117 117 123.716 117 132C117 140.284 123.716 147 132 147Z" fill="#0D1B37"/>
</svg>
